{"title":"Criminal Minds S11E15 A Badge And A Gun REPACK 720p HDTV ziopino","uid":13767489,"size":1096809301,"categoryP":"video","categoryS":"hd___tv_shows","magnet":"?xt=urn:btih:2d8e344e1ae6d4d4afe2fbe29e610aaa70fb7fbe&amp;dn=Criminal+Minds+S11E15+A+Badge+And+A+Gun+REPACK+720p+HDTV+ziopino&amp;tr=udp%3A%2F%2Ftracker.leechers-paradise.org%3A6969&amp;tr=udp%3A%2F%2Fzer0day.ch%3A1337&amp;tr=udp%3A%2F%2Fopen.demonii.com%3A1337&amp;tr=udp%3A%2F%2Ftracker.coppersurfer.tk%3A6969&amp;tr=udp%3A%2F%2Fexodus.desync.com%3A6969","seeders":0,"leechers":1,"uploader":"ziopino","files":1,"time":1457261045,"description":"eneral\r\nUnique ID                                : 49457675989154939685954983752313570233 (0x253533B0D09E5A18062505F8185F83B9)\r\nComplete name                            : Criminal.Minds.S11E15.A.Badge.And.A.Gun.REPACK.720p.HDTV.ziopino.mkv\r\nFormat                                   : Matroska\r\nFormat version                           : Version 4 / Version 2\r\nFile size                                : 1.02 GiB\r\nDuration                                 : 40mn 9s\r\nOverall bit rate                         : 3 641 Kbps\r\nEncoded date                             : UTC 2016-02-25 03:12:38\r\nWriting application                      : mkvmerge v7.0.0 ('Where We Going') 64bit built on Jun 22 2014 08:19:39\r\nWriting library                          : libebml v1.3.0 + libmatroska v1.4.1\r\n\r\nVideo\r\nID                                       : 1\r\nFormat                                   : AVC\r\nFormat/Info                              : Advanced Video Codec\r\nFormat profile                           :   \r\nFormat settings, CABAC                   : Yes\r\nFormat settings, ReFrames                : 5 frames\r\nCodec ID                                 : V_MPEG4/ISO/AVC\r\nDuration                                 : 40mn 9s\r\nBit rate                                 : 3 185 Kbps\r\nWidth                                    : 1 280 pixels\r\nHeight                                   : 720 pixels\r\nDisplay aspect ratio                     : 16:9\r\nFrame rate mode                          : Constant\r\nFrame rate                               : 23.976 (24000/1001) fps\r\nColor space                              : YUV\r\nChroma subsampling                       : 4:2:0\r\nBit depth                                : 8 bits\r\nScan type                                : Progressive\r\nBits/(Pixel*Frame)                       : 0.144\r\nStream size                              : 915 MiB (87%)\r\nWriting library                          : x264 core 148 r2665 a01e339\r\nEncoding settings                        : cabac=1 / ref=5 / deblock=1:0:0 / analyse=0x3:0x113 / me=umh / subme=8 / psy=1 / psy_rd=1.00:0.00 / mixed_ref=1 / me_range=16 / chroma_me=1 / trellis=1 / 8x8dct=1 / cqm=0 / deadzone=21,11 / fast_pskip=1 / chroma_qp_offset=-2 / threads=22 / lookahead_threads=3 / sliced_threads=0 / nr=0 / decimate=1 / interlaced=0 / bluray_compat=0 / constrained_intra=0 / bframes=3 / b_pyramid=2 / b_adapt=2 / b_bias=0 / direct=3 / weightb=1 / open_gop=0 / weightp=2 / keyint=250 / keyint_min=23 / scenecut=40 / intra_refresh=0 / rc_lookahead=50 / rc=crf / mbtree=1 / crf=18.0 / qcomp=0.60 / qpmin=0 / qpmax=69 / qpstep=4 / ip_ratio=1.40 / aq=1:1.00\r\nLanguage                                 : English\r\nDefault                                  : Yes\r\nForced                                   : No\r\nColor range                              : Limited\r\nMatrix coefficients                      : BT.709\r\n\r\nAudio\r\nID                                       : 2\r\nFormat                                   : AC-3\r\nFormat/Info                              : Audio Coding 3\r\nMode extension                           : CM (complete main)\r\nFormat settings, Endianness              : Big\r\nCodec ID                                 : A_AC3\r\nDuration                                 : 40mn 9s\r\nBit rate mode                            : Constant\r\nBit rate                                 : 384 Kbps\r\nChannel(s)                               : 6 channels\r\nChannel positions                        : Front: L C R, Side: L R, LFE\r\nSampling rate                            : 48.0 KHz\r\nFrame rate                               : 31.250 fps (1536 spf)\r\nCompression mode                         : Lossy\r\nStream size                              : 110 MiB (11%)\r\nDefault                                  : Yes\r\nForced                                   : No","torrent":{"xt":"urn:btih:2d8e344e1ae6d4d4afe2fbe29e610aaa70fb7fbe","amp;dn":"Criminal+Minds+S11E15+A+Badge+And+A+Gun+REPACK+720p+HDTV+ziopino","amp;tr":["udp%3A%2F%2Ftracker.leechers-paradise.org%3A6969","udp%3A%2F%2Fzer0day.ch%3A1337","udp%3A%2F%2Fopen.demonii.com%3A1337","udp%3A%2F%2Ftracker.coppersurfer.tk%3A6969","udp%3A%2F%2Fexodus.desync.com%3A6969"],"infoHash":"2d8e344e1ae6d4d4afe2fbe29e610aaa70fb7fbe","infoHashBuffer":{"type":"Buffer","data":[45,142,52,78,26,230,212,212,175,226,251,226,158,97,10,170,112,251,127,190]},"announce":[],"urlList":[]}}